# xmcd CD database file
#
# Track frame offsets:
#	150
#	17398
#	42900
#	55490
#	83850
#	97650
#	138300
#	171150
#	204729
#	250425
#	285375
#
# Disc length: 3844 seconds
#
# Revision: 0
# Processed by: cddbd v1.5.1PL0 Copyright (c) Steve Scherf et al.
# Submitted via: CDex 1.51
#
DISCID=8f0f020b
DTITLE=UNF Jazz Ensemble - 10th Anniversary Edition
DYEAR=1900
DGENRE=Jazz
TTITLE0=Yes or No
TTITLE1=Lush Life
TTITLE2=Honeysuckle Rose
TTITLE3=Teach Me Tonight
TTITLE4=Cottontail
TTITLE5=Wyrgly
TTITLE6=Autumn Leaves
TTITLE7=Mystery
TTITLE8=920 Special
TTITLE9='Round Midnight
TTITLE10=I Thought About You
EXTD=
EXTT0=
EXTT1=
EXTT2=
EXTT3=
EXTT4=
EXTT5=
EXTT6=
EXTT7=
EXTT8=
EXTT9=
EXTT10=
PLAYORDER=
